<!-- icon666.com - MILLIONS vector ICONS FREE --><svg version="1.1" id="Capa_1" xmlns="http://www.w3.org/2000/svg" xmlns:xlink="http://www.w3.org/1999/xlink" x="0px" y="0px" viewBox="0 0 512 512" style="enable-background:new 0 0 512 512;" xml:space="preserve"><g><g><g><path d="M256,302c72.234,0,131-58.767,131-131S328.234,40,256,40S125,98.767,125,171S183.766,302,256,302z M153.615,161h-8.16 C150.233,107.758,192.758,65.232,246,60.456v8.16c0,5.522,4.477,10,10,10s10-4.478,10-10v-8.16 c53.242,4.777,95.767,47.302,100.545,100.544h-8.16c-5.523,0-10,4.478-10,10c0,5.522,4.477,10,10,10h8.16 c-4.777,53.242-47.303,95.768-100.545,100.544v-8.16c0-5.522-4.477-10-10-10s-10,4.478-10,10v8.16 c-53.242-4.777-95.767-47.302-100.545-100.544h8.16c5.523,0,10-4.478,10-10C163.615,165.478,159.138,161,153.615,161z"></path><path d="M256,181h18.42c5.52,0,10-4.49,10-10s-4.48-10-10-10H266v-51.57c0-5.52-4.49-10-10-10s-10,4.48-10,10 c0,0,0,61.465,0,61.57C246,176.383,250.638,181,256,181z"></path><path d="M314.42,181c5.52,0,10-4.49,10-10s-4.48-10-10-10c-5.51,0-10,4.49-10,10S308.91,181,314.42,181z"></path><path d="M506.514,430.184c-7.434-52.558-20.765-81.732-40.757-89.192c-14.873-5.55-67.137-21.572-70.036-22.463l-11.594-34.418 C410.79,253.943,427,214.332,427,171C427,76.71,350.29,0,256,0S85,76.71,85,171c0,43.332,16.21,82.943,42.872,113.11 l-11.365,33.738c-3.34,1.031-55.526,17.098-70.111,22.54c-18.643,6.956-31.611,35.924-39.645,88.558 C1.036,466.397,0,501.712,0,502c0,5.522,4.477,10,10,10c0,0,491.523,0,492,0c5.348,0,10.046-4.544,10-10.082 C511.988,500.49,511.655,466.53,506.514,430.184z M105,171c0-83.262,67.738-151,151-151s151,67.738,151,151s-67.738,151-151,151 S105,254.262,105,171z M377.559,327.258L327.426,382.7l-20.644-48.397c22.954-7.153,43.843-19.027,61.538-34.473L377.559,327.258 z M278.039,340.569L271.93,380h-31.86l-6.109-39.431C241.178,341.504,248.532,342,256,342S270.822,341.504,278.039,340.569z M205.219,334.303L184.574,382.7l-50.132-55.442l9.239-27.428C161.376,315.277,182.265,327.15,205.219,334.303z M211.434,492 H94.5v-47c0-5.522-4.477-10-10-10s-10,4.478-10,10v47H20.468c0.723-12.968,2.437-36.628,6.188-60.901 c9.433-61.047,22.846-70.522,26.732-71.973c14.038-5.237,62.507-20.16,64.204-20.684c10.668,11.798,62.511,69.132,62.63,69.265 c4.774,5.279,13.84,3.722,16.616-2.783l19.7-46.182l4.887,31.54L211.434,492z M231.53,492l9.036-92h30.868l9.036,92H231.53z M437.5,492v-47c0-5.522-4.477-10-10-10s-10,4.478-10,10v47H300.566l-9.99-101.718l4.887-31.54 c8.832,20.705,19.676,46.126,19.7,46.182c2.812,6.592,11.81,8.098,16.616,2.783l62.203-68.792 c1.494,0.459,50.471,15.474,64.784,20.815c4.348,1.622,19.211,11.687,27.92,73.073c3.336,23.515,4.587,46.507,5.05,59.197H437.5z "></path></g></g></g></svg>