<svg width="25" height="24" viewBox="0 0 25 24" fill="none" xmlns="http://www.w3.org/2000/svg">
<path d="M16.5 2H8.5C4.5 2 2.5 4 2.5 8V21C2.5 21.55 2.95 22 3.5 22H16.5C20.5 22 22.5 20 22.5 16V8C22.5 4 20.5 2 16.5 2Z" stroke="#282828" stroke-width="1.5" stroke-linecap="round" stroke-linejoin="round"/>
<path d="M13.41 7.84L8.22004 13.03C8.02004 13.23 7.83004 13.62 7.79004 13.9L7.51004 15.88C7.41004 16.6 7.91004 17.1 8.63004 17L10.61 16.72C10.89 16.68 11.28 16.49 11.48 16.29L16.67 11.1C17.56 10.21 17.99 9.17 16.67 7.85C15.35 6.52 14.31 6.94 13.41 7.84Z" stroke="#282828" stroke-width="1.5" stroke-miterlimit="10" stroke-linecap="round" stroke-linejoin="round"/>
<path d="M12.6699 8.58C13.1099 10.15 14.3399 11.39 15.9199 11.83" stroke="#282828" stroke-width="1.5" stroke-miterlimit="10" stroke-linecap="round" stroke-linejoin="round"/>
</svg>
