<svg width="22" height="22" viewBox="0 0 22 22" fill="none" xmlns="http://www.w3.org/2000/svg">
<g id="message-add">
<path id="Vector (Stroke)" fill-rule="evenodd" clip-rule="evenodd" d="M1.71967 1.96967C2.90993 0.77941 4.63439 0.25 6.75 0.25H14.75C16.8656 0.25 18.5901 0.77941 19.7803 1.96967C20.9706 3.15993 21.5 4.88439 21.5 7V15C21.5 17.1156 20.9706 18.8401 19.7803 20.0303C18.5901 21.2206 16.8656 21.75 14.75 21.75H1.75C0.785786 21.75 0 20.9642 0 20V7C0 4.88439 0.52941 3.15993 1.71967 1.96967ZM2.78033 3.03033C1.97059 3.84007 1.5 5.11561 1.5 7V20C1.5 20.1358 1.61421 20.25 1.75 20.25H14.75C16.6344 20.25 17.9099 19.7794 18.7197 18.9697C19.5294 18.1599 20 16.8844 20 15V7C20 5.11561 19.5294 3.84007 18.7197 3.03033C17.9099 2.22059 16.6344 1.75 14.75 1.75H6.75C4.86561 1.75 3.59007 2.22059 2.78033 3.03033Z" fill="#282828"/>
<path id="Vector (Stroke)_2" fill-rule="evenodd" clip-rule="evenodd" d="M6.5 11C6.5 10.5858 6.83579 10.25 7.25 10.25H14.25C14.6642 10.25 15 10.5858 15 11C15 11.4142 14.6642 11.75 14.25 11.75H7.25C6.83579 11.75 6.5 11.4142 6.5 11Z" fill="#282828"/>
<path id="Vector (Stroke)_3" fill-rule="evenodd" clip-rule="evenodd" d="M10.75 6.75C11.1642 6.75 11.5 7.08579 11.5 7.5V14.5C11.5 14.9142 11.1642 15.25 10.75 15.25C10.3358 15.25 10 14.9142 10 14.5V7.5C10 7.08579 10.3358 6.75 10.75 6.75Z" fill="#282828"/>
</g>
</svg>
